<?xml version="1.0" encoding="UTF-8" standalone="no"?>
<svg
   xmlns:dc="http://purl.org/dc/elements/1.1/"
   xmlns:cc="http://creativecommons.org/ns#"
   xmlns:rdf="http://www.w3.org/1999/02/22-rdf-syntax-ns#"
   xmlns:svg="http://www.w3.org/2000/svg"
   xmlns="http://www.w3.org/2000/svg"
   xmlns:sodipodi="http://sodipodi.sourceforge.net/DTD/sodipodi-0.dtd"
   xmlns:inkscape="http://www.inkscape.org/namespaces/inkscape"
   width="105.5mm"
   height="50.5mm"
   viewBox="-53 -25 105.5 50.5"
   version="1.1"
   id="svg6"
   sodipodi:docname="led_cover.svg"
   inkscape:version="0.92.3 (2405546, 2018-03-11)">
  <metadata
     id="metadata12">
    <rdf:RDF>
      <cc:Work
         rdf:about="">
        <dc:format>image/svg+xml</dc:format>
        <dc:type
           rdf:resource="http://purl.org/dc/dcmitype/StillImage" />
        <dc:title>OpenSCAD Model</dc:title>
      </cc:Work>
    </rdf:RDF>
  </metadata>
  <defs
     id="defs10" />
  <sodipodi:namedview
     pagecolor="#ffffff"
     bordercolor="#666666"
     borderopacity="1"
     objecttolerance="10"
     gridtolerance="10"
     guidetolerance="10"
     inkscape:pageopacity="0"
     inkscape:pageshadow="2"
     inkscape:window-width="3840"
     inkscape:window-height="2107"
     id="namedview8"
     showgrid="false"
     inkscape:zoom="1.8945125"
     inkscape:cx="84.828681"
     inkscape:cy="-18.41324"
     inkscape:window-x="1912"
     inkscape:window-y="-8"
     inkscape:window-maximized="1"
     inkscape:current-layer="svg6"
     units="mm"
     inkscape:document-units="mm"
     fit-margin-top="0"
     fit-margin-left="0"
     fit-margin-right="0"
     fit-margin-bottom="0" />
  <title
     id="title2">OpenSCAD Model</title>
  <path
     d="m 52.25,-24.75 h -105 v 50 h 105 z m -102.0628,3.998 -0.0625,-0.0059 -0.0621,-0.0098 -0.0613,-0.0137 -0.0603,-0.0175 -0.0591,-0.0213 -0.0577,-0.025 -0.056,-0.0285 -0.054,-0.032 -0.052,-0.0353 -0.0496,-0.0385 -0.0471,-0.0415 -0.0445,-0.0444 -0.0415,-0.0472 -0.0385,-0.0496 -0.0353,-0.052 -0.032,-0.054 -0.0285,-0.056 -0.025,-0.0577 -0.0212,-0.0591 -0.0176,-0.0603 -0.0137,-0.0613 -0.0098,-0.0621 -0.0059,-0.0625 -0.002,-0.0628 0.002,-0.0628 0.0059,-0.0625 0.0098,-0.0621 0.0137,-0.0613 0.0176,-0.0603 0.0212,-0.0591 0.025,-0.0577 0.0285,-0.056 0.032,-0.054 0.0353,-0.052 0.0385,-0.0496 0.0415,-0.0471 0.0445,-0.0445 0.0471,-0.0415 0.0496,-0.0385 0.052,-0.0353 0.054,-0.032 0.056,-0.0285 0.0577,-0.025 0.0591,-0.0212 0.0603,-0.0176 0.0613,-0.0137 0.0621,-0.0098 0.0625,-0.0059 0.0628,-0.002 0.0628,0.002 0.0625,0.0059 0.0621,0.0098 0.0613,0.0137 0.0603,0.0176 0.0591,0.0212 0.0577,0.025 0.056,0.0285 0.054,0.032 0.052,0.0353 0.0496,0.0385 0.0472,0.0415 0.0444,0.0445 0.0415,0.0471 0.0385,0.0496 0.0353,0.052 0.032,0.054 0.0285,0.056 0.025,0.0577 0.0213,0.0591 0.0175,0.0603 0.0137,0.0613 0.0098,0.0621 0.0059,0.0625 0.002,0.0628 -0.002,0.0628 -0.0059,0.0625 -0.0098,0.0621 -0.0137,0.0613 -0.0175,0.0603 -0.0213,0.0591 -0.025,0.0577 -0.0285,0.056 -0.032,0.054 -0.0353,0.052 -0.0385,0.0496 -0.0415,0.0472 -0.0444,0.0444 -0.0472,0.0415 -0.0496,0.0385 -0.052,0.0353 -0.054,0.032 -0.056,0.0285 -0.0577,0.025 -0.0591,0.0213 -0.0603,0.0175 -0.0613,0.0137 -0.0621,0.0098 -0.0625,0.0059 -0.0628,0.002 z m 99,0 -0.0625,-0.0059 -0.0621,-0.0098 -0.0613,-0.0137 -0.0603,-0.0175 -0.0591,-0.0213 -0.0577,-0.025 -0.056,-0.0285 -0.054,-0.032 -0.052,-0.0353 -0.0496,-0.0385 -0.0472,-0.0415 -0.0444,-0.0444 -0.0415,-0.0472 -0.0385,-0.0496 -0.0353,-0.052 -0.032,-0.054 -0.0285,-0.056 -0.025,-0.0577 -0.0213,-0.0591 -0.0175,-0.0603 -0.0137,-0.0613 -0.0098,-0.0621 -0.0059,-0.0625 -0.002,-0.0628 0.002,-0.0628 0.0059,-0.0625 0.0098,-0.0621 0.0137,-0.0613 0.0175,-0.0603 0.0213,-0.0591 0.025,-0.0577 0.0285,-0.056 0.032,-0.054 0.0353,-0.052 0.0385,-0.0496 0.0415,-0.0471 0.0444,-0.0445 0.0472,-0.0415 0.0496,-0.0385 0.052,-0.0353 0.054,-0.032 0.056,-0.0285 0.0577,-0.025 0.0591,-0.0212 0.0603,-0.0176 0.0613,-0.0137 0.0621,-0.0098 0.0625,-0.0059 0.0628,-0.002 0.0628,0.002 0.0625,0.0059 0.0621,0.0098 0.0613,0.0137 0.0603,0.0176 0.0591,0.0212 0.0577,0.025 0.056,0.0285 0.054,0.032 0.052,0.0353 0.0496,0.0385 0.0471,0.0415 0.0445,0.0445 0.0415,0.0471 0.0385,0.0496 0.0353,0.052 0.032,0.054 0.0285,0.056 0.025,0.0577 0.0212,0.0591 0.0176,0.0603 0.0137,0.0613 0.0098,0.0621 0.0059,0.0625 0.002,0.0628 -0.002,0.0628 -0.0059,0.0625 -0.0098,0.0621 -0.0137,0.0613 -0.0176,0.0603 -0.0212,0.0591 -0.025,0.0577 -0.0285,0.056 -0.032,0.054 -0.0353,0.052 -0.0385,0.0496 -0.0415,0.0472 -0.0445,0.0444 -0.0471,0.0415 -0.0496,0.0385 -0.052,0.0353 -0.054,0.032 -0.056,0.0285 -0.0577,0.025 -0.0591,0.0213 -0.0603,0.0175 -0.0613,0.0137 -0.0621,0.0098 -0.0625,0.0059 -0.0628,0.002 z m -99,44 -0.0625,-0.0059 -0.0621,-0.0098 -0.0613,-0.0137 -0.0603,-0.0176 -0.0591,-0.0212 -0.0577,-0.025 -0.056,-0.0285 -0.054,-0.032 -0.052,-0.0353 -0.0496,-0.0385 -0.0471,-0.0415 -0.0445,-0.0445 -0.0415,-0.0471 -0.0385,-0.0496 -0.0353,-0.052 -0.032,-0.054 -0.0285,-0.056 -0.025,-0.0577 -0.0212,-0.0591 -0.0176,-0.0603 -0.0137,-0.0613 -0.0098,-0.0621 -0.0059,-0.0625 -0.002,-0.0628 0.002,-0.0628 0.0059,-0.0625 0.0098,-0.0621 0.0137,-0.0613 0.0176,-0.0603 0.0212,-0.0591 0.025,-0.0577 0.0285,-0.056 0.032,-0.054 0.0353,-0.052 0.0385,-0.0496 0.0415,-0.0472 0.0445,-0.0444 0.0471,-0.0415 0.0496,-0.0385 0.052,-0.0353 0.054,-0.032 0.056,-0.0285 0.0577,-0.025 0.0591,-0.0213 0.0603,-0.0175 0.0613,-0.0137 0.0621,-0.0098 0.0625,-0.0059 0.0628,-0.002 0.0628,0.002 0.0625,0.0059 0.0621,0.0098 0.0613,0.0137 0.0603,0.0175 0.0591,0.0213 0.0577,0.025 0.056,0.0285 0.054,0.032 0.052,0.0353 0.0496,0.0385 0.0472,0.0415 0.0444,0.0444 0.0415,0.0472 0.0385,0.0496 0.0353,0.052 0.032,0.054 0.0285,0.056 0.025,0.0577 0.0213,0.0591 0.0175,0.0603 0.0137,0.0613 0.0098,0.0621 0.0059,0.0625 0.002,0.0628 -0.002,0.0628 -0.0059,0.0625 -0.0098,0.0621 -0.0137,0.0613 -0.0175,0.0603 -0.0213,0.0591 -0.025,0.0577 -0.0285,0.056 -0.032,0.054 -0.0353,0.052 -0.0385,0.0496 -0.0415,0.0471 -0.0444,0.0445 -0.0472,0.0415 -0.0496,0.0385 -0.052,0.0353 -0.054,0.032 -0.056,0.0285 -0.0577,0.025 -0.0591,0.0212 -0.0603,0.0176 -0.0613,0.0137 -0.0621,0.0098 -0.0625,0.0059 -0.0628,0.002 z m 99,0 -0.0625,-0.0059 -0.0621,-0.0098 -0.0613,-0.0137 -0.0603,-0.0176 -0.0591,-0.0212 -0.0577,-0.025 -0.056,-0.0285 -0.054,-0.032 -0.052,-0.0353 -0.0496,-0.0385 -0.0472,-0.0415 -0.0444,-0.0445 -0.0415,-0.0471 -0.0385,-0.0496 -0.0353,-0.052 -0.032,-0.054 -0.0285,-0.056 -0.025,-0.0577 L 48.2989,22.559 48.2814,22.4987 48.2677,22.4374 48.2579,22.3753 48.252,22.3128 48.25,22.25 l 0.002,-0.0628 0.0059,-0.0625 0.0098,-0.0621 0.0137,-0.0613 0.0175,-0.0603 0.0213,-0.0591 0.025,-0.0577 0.0285,-0.056 0.032,-0.054 0.0353,-0.052 0.0385,-0.0496 0.0415,-0.0472 0.0444,-0.0444 0.0472,-0.0415 0.0496,-0.0385 0.052,-0.0353 0.054,-0.032 0.056,-0.0285 0.0577,-0.025 0.0591,-0.0213 0.0603,-0.0175 0.0613,-0.0137 0.0621,-0.0098 0.0625,-0.0059 0.0628,-0.002 0.0628,0.002 0.0625,0.0059 0.0621,0.0098 0.0613,0.0137 0.0603,0.0175 0.0591,0.0213 0.0577,0.025 0.056,0.0285 0.054,0.032 0.052,0.0353 0.0496,0.0385 0.0471,0.0415 0.0445,0.0444 0.0415,0.0472 0.0385,0.0496 0.0353,0.052 0.032,0.054 0.0285,0.056 0.025,0.0577 0.0212,0.0591 0.0176,0.0603 0.0137,0.0613 0.0098,0.0621 0.0059,0.0625 0.002,0.0628 -0.002,0.0628 -0.0059,0.0625 -0.0098,0.0621 -0.0137,0.0613 -0.0176,0.0603 -0.0212,0.0591 -0.025,0.0577 -0.0285,0.056 -0.032,0.054 -0.0353,0.052 -0.0385,0.0496 -0.0415,0.0471 -0.0445,0.0445 -0.0471,0.0415 -0.0496,0.0385 -0.052,0.0353 -0.054,0.032 -0.056,0.0285 -0.0577,0.025 -0.0591,0.0212 -0.0603,0.0176 -0.0613,0.0137 -0.0621,0.0098 -0.0625,0.0059 -0.0628,0.002 z"
     id="path4"
     style="fill:#d3d3d3;stroke:#ff0000;stroke-width:0.5;stroke-opacity:1"
     inkscape:connector-curvature="0" />
</svg>
