<?xml version="1.0" encoding="UTF-8" standalone="no"?>
<svg
   xmlns:dc="http://purl.org/dc/elements/1.1/"
   xmlns:cc="http://creativecommons.org/ns#"
   xmlns:rdf="http://www.w3.org/1999/02/22-rdf-syntax-ns#"
   xmlns:svg="http://www.w3.org/2000/svg"
   xmlns="http://www.w3.org/2000/svg"
   xmlns:sodipodi="http://sodipodi.sourceforge.net/DTD/sodipodi-0.dtd"
   xmlns:inkscape="http://www.inkscape.org/namespaces/inkscape"
   width="106"
   height="50"
   viewBox="-53 -25 106 50"
   version="1.1"
   id="svg6"
   sodipodi:docname="led_cover.svg"
   inkscape:version="0.92.3 (2405546, 2018-03-11)">
  <metadata
     id="metadata12">
    <rdf:RDF>
      <cc:Work
         rdf:about="">
        <dc:format>image/svg+xml</dc:format>
        <dc:type
           rdf:resource="http://purl.org/dc/dcmitype/StillImage" />
      </cc:Work>
    </rdf:RDF>
  </metadata>
  <defs
     id="defs10" />
  <sodipodi:namedview
     pagecolor="#ffffff"
     bordercolor="#666666"
     borderopacity="1"
     objecttolerance="10"
     gridtolerance="10"
     guidetolerance="10"
     inkscape:pageopacity="0"
     inkscape:pageshadow="2"
     inkscape:window-width="1920"
     inkscape:window-height="1057"
     id="namedview8"
     showgrid="false"
     inkscape:zoom="7.57805"
     inkscape:cx="50.018853"
     inkscape:cy="39.029012"
     inkscape:window-x="-8"
     inkscape:window-y="218"
     inkscape:window-maximized="1"
     inkscape:current-layer="svg6" />
  <title
     id="title2">OpenSCAD Model</title>
  <path
     d=" M 52.5,-25 L -52.5,-25 L -52.5,25 L 52.5,25 z M -49.5628,-21.002 L -49.6253,-21.0079 L -49.6874,-21.0177 L -49.7487,-21.0314 L -49.809,-21.0489 L -49.8681,-21.0702  L -49.9258,-21.0952 L -49.9818,-21.1237 L -50.0358,-21.1557 L -50.0878,-21.191 L -50.1374,-21.2295 L -50.1845,-21.271  L -50.229,-21.3154 L -50.2705,-21.3626 L -50.309,-21.4122 L -50.3443,-21.4642 L -50.3763,-21.5182 L -50.4048,-21.5742  L -50.4298,-21.6319 L -50.451,-21.691 L -50.4686,-21.7513 L -50.4823,-21.8126 L -50.4921,-21.8747 L -50.498,-21.9372  L -50.5,-22 L -50.498,-22.0628 L -50.4921,-22.1253 L -50.4823,-22.1874 L -50.4686,-22.2487 L -50.451,-22.309  L -50.4298,-22.3681 L -50.4048,-22.4258 L -50.3763,-22.4818 L -50.3443,-22.5358 L -50.309,-22.5878 L -50.2705,-22.6374  L -50.229,-22.6845 L -50.1845,-22.729 L -50.1374,-22.7705 L -50.0878,-22.809 L -50.0358,-22.8443 L -49.9818,-22.8763  L -49.9258,-22.9048 L -49.8681,-22.9298 L -49.809,-22.951 L -49.7487,-22.9686 L -49.6874,-22.9823 L -49.6253,-22.9921  L -49.5628,-22.998 L -49.5,-23 L -49.4372,-22.998 L -49.3747,-22.9921 L -49.3126,-22.9823 L -49.2513,-22.9686  L -49.191,-22.951 L -49.1319,-22.9298 L -49.0742,-22.9048 L -49.0182,-22.8763 L -48.9642,-22.8443 L -48.9122,-22.809  L -48.8626,-22.7705 L -48.8154,-22.729 L -48.771,-22.6845 L -48.7295,-22.6374 L -48.691,-22.5878 L -48.6557,-22.5358  L -48.6237,-22.4818 L -48.5952,-22.4258 L -48.5702,-22.3681 L -48.5489,-22.309 L -48.5314,-22.2487 L -48.5177,-22.1874  L -48.5079,-22.1253 L -48.502,-22.0628 L -48.5,-22 L -48.502,-21.9372 L -48.5079,-21.8747 L -48.5177,-21.8126  L -48.5314,-21.7513 L -48.5489,-21.691 L -48.5702,-21.6319 L -48.5952,-21.5742 L -48.6237,-21.5182 L -48.6557,-21.4642  L -48.691,-21.4122 L -48.7295,-21.3626 L -48.771,-21.3154 L -48.8154,-21.271 L -48.8626,-21.2295 L -48.9122,-21.191  L -48.9642,-21.1557 L -49.0182,-21.1237 L -49.0742,-21.0952 L -49.1319,-21.0702 L -49.191,-21.0489 L -49.2513,-21.0314  L -49.3126,-21.0177 L -49.3747,-21.0079 L -49.4372,-21.002 L -49.5,-21 z M 49.4372,-21.002 L 49.3747,-21.0079 L 49.3126,-21.0177 L 49.2513,-21.0314 L 49.191,-21.0489 L 49.1319,-21.0702  L 49.0742,-21.0952 L 49.0182,-21.1237 L 48.9642,-21.1557 L 48.9122,-21.191 L 48.8626,-21.2295 L 48.8154,-21.271  L 48.771,-21.3154 L 48.7295,-21.3626 L 48.691,-21.4122 L 48.6557,-21.4642 L 48.6237,-21.5182 L 48.5952,-21.5742  L 48.5702,-21.6319 L 48.5489,-21.691 L 48.5314,-21.7513 L 48.5177,-21.8126 L 48.5079,-21.8747 L 48.502,-21.9372  L 48.5,-22 L 48.502,-22.0628 L 48.5079,-22.1253 L 48.5177,-22.1874 L 48.5314,-22.2487 L 48.5489,-22.309  L 48.5702,-22.3681 L 48.5952,-22.4258 L 48.6237,-22.4818 L 48.6557,-22.5358 L 48.691,-22.5878 L 48.7295,-22.6374  L 48.771,-22.6845 L 48.8154,-22.729 L 48.8626,-22.7705 L 48.9122,-22.809 L 48.9642,-22.8443 L 49.0182,-22.8763  L 49.0742,-22.9048 L 49.1319,-22.9298 L 49.191,-22.951 L 49.2513,-22.9686 L 49.3126,-22.9823 L 49.3747,-22.9921  L 49.4372,-22.998 L 49.5,-23 L 49.5628,-22.998 L 49.6253,-22.9921 L 49.6874,-22.9823 L 49.7487,-22.9686  L 49.809,-22.951 L 49.8681,-22.9298 L 49.9258,-22.9048 L 49.9818,-22.8763 L 50.0358,-22.8443 L 50.0878,-22.809  L 50.1374,-22.7705 L 50.1845,-22.729 L 50.229,-22.6845 L 50.2705,-22.6374 L 50.309,-22.5878 L 50.3443,-22.5358  L 50.3763,-22.4818 L 50.4048,-22.4258 L 50.4298,-22.3681 L 50.451,-22.309 L 50.4686,-22.2487 L 50.4823,-22.1874  L 50.4921,-22.1253 L 50.498,-22.0628 L 50.5,-22 L 50.498,-21.9372 L 50.4921,-21.8747 L 50.4823,-21.8126  L 50.4686,-21.7513 L 50.451,-21.691 L 50.4298,-21.6319 L 50.4048,-21.5742 L 50.3763,-21.5182 L 50.3443,-21.4642  L 50.309,-21.4122 L 50.2705,-21.3626 L 50.229,-21.3154 L 50.1845,-21.271 L 50.1374,-21.2295 L 50.0878,-21.191  L 50.0358,-21.1557 L 49.9818,-21.1237 L 49.9258,-21.0952 L 49.8681,-21.0702 L 49.809,-21.0489 L 49.7487,-21.0314  L 49.6874,-21.0177 L 49.6253,-21.0079 L 49.5628,-21.002 L 49.5,-21 z M -49.5628,22.998 L -49.6253,22.9921 L -49.6874,22.9823 L -49.7487,22.9686 L -49.809,22.951 L -49.8681,22.9298  L -49.9258,22.9048 L -49.9818,22.8763 L -50.0358,22.8443 L -50.0878,22.809 L -50.1374,22.7705 L -50.1845,22.729  L -50.229,22.6845 L -50.2705,22.6374 L -50.309,22.5878 L -50.3443,22.5358 L -50.3763,22.4818 L -50.4048,22.4258  L -50.4298,22.3681 L -50.451,22.309 L -50.4686,22.2487 L -50.4823,22.1874 L -50.4921,22.1253 L -50.498,22.0628  L -50.5,22 L -50.498,21.9372 L -50.4921,21.8747 L -50.4823,21.8126 L -50.4686,21.7513 L -50.451,21.691  L -50.4298,21.6319 L -50.4048,21.5742 L -50.3763,21.5182 L -50.3443,21.4642 L -50.309,21.4122 L -50.2705,21.3626  L -50.229,21.3154 L -50.1845,21.271 L -50.1374,21.2295 L -50.0878,21.191 L -50.0358,21.1557 L -49.9818,21.1237  L -49.9258,21.0952 L -49.8681,21.0702 L -49.809,21.0489 L -49.7487,21.0314 L -49.6874,21.0177 L -49.6253,21.0079  L -49.5628,21.002 L -49.5,21 L -49.4372,21.002 L -49.3747,21.0079 L -49.3126,21.0177 L -49.2513,21.0314  L -49.191,21.0489 L -49.1319,21.0702 L -49.0742,21.0952 L -49.0182,21.1237 L -48.9642,21.1557 L -48.9122,21.191  L -48.8626,21.2295 L -48.8154,21.271 L -48.771,21.3154 L -48.7295,21.3626 L -48.691,21.4122 L -48.6557,21.4642  L -48.6237,21.5182 L -48.5952,21.5742 L -48.5702,21.6319 L -48.5489,21.691 L -48.5314,21.7513 L -48.5177,21.8126  L -48.5079,21.8747 L -48.502,21.9372 L -48.5,22 L -48.502,22.0628 L -48.5079,22.1253 L -48.5177,22.1874  L -48.5314,22.2487 L -48.5489,22.309 L -48.5702,22.3681 L -48.5952,22.4258 L -48.6237,22.4818 L -48.6557,22.5358  L -48.691,22.5878 L -48.7295,22.6374 L -48.771,22.6845 L -48.8154,22.729 L -48.8626,22.7705 L -48.9122,22.809  L -48.9642,22.8443 L -49.0182,22.8763 L -49.0742,22.9048 L -49.1319,22.9298 L -49.191,22.951 L -49.2513,22.9686  L -49.3126,22.9823 L -49.3747,22.9921 L -49.4372,22.998 L -49.5,23 z M 49.4372,22.998 L 49.3747,22.9921 L 49.3126,22.9823 L 49.2513,22.9686 L 49.191,22.951 L 49.1319,22.9298  L 49.0742,22.9048 L 49.0182,22.8763 L 48.9642,22.8443 L 48.9122,22.809 L 48.8626,22.7705 L 48.8154,22.729  L 48.771,22.6845 L 48.7295,22.6374 L 48.691,22.5878 L 48.6557,22.5358 L 48.6237,22.4818 L 48.5952,22.4258  L 48.5702,22.3681 L 48.5489,22.309 L 48.5314,22.2487 L 48.5177,22.1874 L 48.5079,22.1253 L 48.502,22.0628  L 48.5,22 L 48.502,21.9372 L 48.5079,21.8747 L 48.5177,21.8126 L 48.5314,21.7513 L 48.5489,21.691  L 48.5702,21.6319 L 48.5952,21.5742 L 48.6237,21.5182 L 48.6557,21.4642 L 48.691,21.4122 L 48.7295,21.3626  L 48.771,21.3154 L 48.8154,21.271 L 48.8626,21.2295 L 48.9122,21.191 L 48.9642,21.1557 L 49.0182,21.1237  L 49.0742,21.0952 L 49.1319,21.0702 L 49.191,21.0489 L 49.2513,21.0314 L 49.3126,21.0177 L 49.3747,21.0079  L 49.4372,21.002 L 49.5,21 L 49.5628,21.002 L 49.6253,21.0079 L 49.6874,21.0177 L 49.7487,21.0314  L 49.809,21.0489 L 49.8681,21.0702 L 49.9258,21.0952 L 49.9818,21.1237 L 50.0358,21.1557 L 50.0878,21.191  L 50.1374,21.2295 L 50.1845,21.271 L 50.229,21.3154 L 50.2705,21.3626 L 50.309,21.4122 L 50.3443,21.4642  L 50.3763,21.5182 L 50.4048,21.5742 L 50.4298,21.6319 L 50.451,21.691 L 50.4686,21.7513 L 50.4823,21.8126  L 50.4921,21.8747 L 50.498,21.9372 L 50.5,22 L 50.498,22.0628 L 50.4921,22.1253 L 50.4823,22.1874  L 50.4686,22.2487 L 50.451,22.309 L 50.4298,22.3681 L 50.4048,22.4258 L 50.3763,22.4818 L 50.3443,22.5358  L 50.309,22.5878 L 50.2705,22.6374 L 50.229,22.6845 L 50.1845,22.729 L 50.1374,22.7705 L 50.0878,22.809  L 50.0358,22.8443 L 49.9818,22.8763 L 49.9258,22.9048 L 49.8681,22.9298 L 49.809,22.951 L 49.7487,22.9686  L 49.6874,22.9823 L 49.6253,22.9921 L 49.5628,22.998 L 49.5,23 z "
     stroke="black"
     fill="lightgray"
     stroke-width="0.5"
     id="path4"
     style="stroke:#ff0000;stroke-opacity:1" />
</svg>
