solid OpenSCAD_Model
  facet normal -1 0 0
    outer loop
      vertex -52.5 51.5 -15
      vertex -52.5 48.5 -12
      vertex -52.5 51.5 -12
    endloop
  endfacet
  facet normal -1 0 0
    outer loop
      vertex -52.5 48.5 -12
      vertex -52.5 45.5 -12
      vertex -52.5 48.5 -7.5
    endloop
  endfacet
  facet normal -1 0 0
    outer loop
      vertex -52.5 51.5 -15
      vertex -52.5 45.5 -12
      vertex -52.5 48.5 -12
    endloop
  endfacet
  facet normal -1 0 0
    outer loop
      vertex -52.5 -51.5 -15
      vertex -52.5 45.5 -12
      vertex -52.5 51.5 -15
    endloop
  endfacet
  facet normal -1 -0 0
    outer loop
      vertex -52.5 45.5 -12
      vertex -52.5 -51.5 -15
      vertex -52.5 -48.5 -12
    endloop
  endfacet
  facet normal -1 0 0
    outer loop
      vertex -52.5 -51.5 15
      vertex -52.5 -48.5 -12
      vertex -52.5 -51.5 -15
    endloop
  endfacet
  facet normal -1 0 0
    outer loop
      vertex -52.5 -48.5 -12
      vertex -52.5 -51.5 15
      vertex -52.5 -48.5 15
    endloop
  endfacet
  facet normal -1 -0 0
    outer loop
      vertex -52.5 48.5 -7.5
      vertex -52.5 45.5 -12
      vertex -52.5 45.5 -7.5
    endloop
  endfacet
  facet normal -0 0 1
    outer loop
      vertex -52.5 -48.5 15
      vertex 52.5 -51.5 15
      vertex 52.5 -48.5 15
    endloop
  endfacet
  facet normal 0 0 1
    outer loop
      vertex 52.5 -51.5 15
      vertex -52.5 -48.5 15
      vertex -52.5 -51.5 15
    endloop
  endfacet
  facet normal 1 0 0
    outer loop
      vertex 52.5 -48.5 15
      vertex 52.5 -51.5 15
      vertex 52.5 -48.5 -12
    endloop
  endfacet
  facet normal 1 0 0
    outer loop
      vertex 52.5 48.5 -7.5
      vertex 52.5 45.5 -7.5
      vertex 52.5 48.5 -12
    endloop
  endfacet
  facet normal 1 -0 0
    outer loop
      vertex 52.5 48.5 -12
      vertex 52.5 51.5 -15
      vertex 52.5 51.5 -12
    endloop
  endfacet
  facet normal 1 0 0
    outer loop
      vertex 52.5 45.5 -12
      vertex 52.5 48.5 -12
      vertex 52.5 45.5 -7.5
    endloop
  endfacet
  facet normal 1 -0 0
    outer loop
      vertex 52.5 45.5 -12
      vertex 52.5 51.5 -15
      vertex 52.5 48.5 -12
    endloop
  endfacet
  facet normal 1 0 0
    outer loop
      vertex 52.5 -51.5 -15
      vertex 52.5 45.5 -12
      vertex 52.5 -48.5 -12
    endloop
  endfacet
  facet normal 1 0 0
    outer loop
      vertex 52.5 45.5 -12
      vertex 52.5 -51.5 -15
      vertex 52.5 51.5 -15
    endloop
  endfacet
  facet normal 1 0 0
    outer loop
      vertex 52.5 -51.5 -15
      vertex 52.5 -48.5 -12
      vertex 52.5 -51.5 15
    endloop
  endfacet
  facet normal 0 1 -0
    outer loop
      vertex 52.5 51.5 -15
      vertex -52.5 51.5 -12
      vertex 52.5 51.5 -12
    endloop
  endfacet
  facet normal 0 1 0
    outer loop
      vertex -52.5 51.5 -12
      vertex 52.5 51.5 -15
      vertex -52.5 51.5 -15
    endloop
  endfacet
  facet normal 0 0 -1
    outer loop
      vertex 52.5 -51.5 -15
      vertex 42.5 -40 -15
      vertex 52.5 51.5 -15
    endloop
  endfacet
  facet normal 0 0 -1
    outer loop
      vertex 52.5 -51.5 -15
      vertex -42.5 -40 -15
      vertex 42.5 -40 -15
    endloop
  endfacet
  facet normal -0 0 -1
    outer loop
      vertex -42.5 -40 -15
      vertex -52.5 -51.5 -15
      vertex -42.5 40 -15
    endloop
  endfacet
  facet normal 0 0 -1
    outer loop
      vertex -52.5 -51.5 -15
      vertex -42.5 -40 -15
      vertex 52.5 -51.5 -15
    endloop
  endfacet
  facet normal 0 0 -1
    outer loop
      vertex 42.5 40 -15
      vertex 52.5 51.5 -15
      vertex 42.5 -40 -15
    endloop
  endfacet
  facet normal 0 0 -1
    outer loop
      vertex -42.5 40 -15
      vertex 52.5 51.5 -15
      vertex 42.5 40 -15
    endloop
  endfacet
  facet normal 0 0 -1
    outer loop
      vertex -42.5 40 -15
      vertex -52.5 51.5 -15
      vertex 52.5 51.5 -15
    endloop
  endfacet
  facet normal 0 0 -1
    outer loop
      vertex -52.5 51.5 -15
      vertex -42.5 40 -15
      vertex -52.5 -51.5 -15
    endloop
  endfacet
  facet normal 0 -1 0
    outer loop
      vertex -52.5 -51.5 -15
      vertex 52.5 -51.5 15
      vertex -52.5 -51.5 15
    endloop
  endfacet
  facet normal 0 -1 -0
    outer loop
      vertex 52.5 -51.5 15
      vertex -52.5 -51.5 -15
      vertex 52.5 -51.5 -15
    endloop
  endfacet
  facet normal -0 0 1
    outer loop
      vertex -52.5 51.5 -12
      vertex 52.5 48.5 -12
      vertex 52.5 51.5 -12
    endloop
  endfacet
  facet normal 0 0 1
    outer loop
      vertex 52.5 48.5 -12
      vertex -52.5 51.5 -12
      vertex -52.5 48.5 -12
    endloop
  endfacet
  facet normal 0 0 1
    outer loop
      vertex 42.5 -40 -12
      vertex 52.5 45.5 -12
      vertex 42.5 40 -12
    endloop
  endfacet
  facet normal 0 0 1
    outer loop
      vertex 52.5 45.5 -12
      vertex -42.5 40 -12
      vertex 42.5 40 -12
    endloop
  endfacet
  facet normal 0 0 1
    outer loop
      vertex -42.5 40 -12
      vertex -52.5 45.5 -12
      vertex -42.5 -40 -12
    endloop
  endfacet
  facet normal -0 0 1
    outer loop
      vertex -52.5 45.5 -12
      vertex -42.5 40 -12
      vertex 52.5 45.5 -12
    endloop
  endfacet
  facet normal 0 0 1
    outer loop
      vertex 52.5 45.5 -12
      vertex 42.5 -40 -12
      vertex 52.5 -48.5 -12
    endloop
  endfacet
  facet normal -0 0 1
    outer loop
      vertex -42.5 -40 -12
      vertex 52.5 -48.5 -12
      vertex 42.5 -40 -12
    endloop
  endfacet
  facet normal 0 0 1
    outer loop
      vertex -42.5 -40 -12
      vertex -52.5 -48.5 -12
      vertex 52.5 -48.5 -12
    endloop
  endfacet
  facet normal 0 0 1
    outer loop
      vertex -52.5 -48.5 -12
      vertex -42.5 -40 -12
      vertex -52.5 45.5 -12
    endloop
  endfacet
  facet normal 0 1 -0
    outer loop
      vertex 52.5 -48.5 -12
      vertex -52.5 -48.5 15
      vertex 52.5 -48.5 15
    endloop
  endfacet
  facet normal 0 1 0
    outer loop
      vertex -52.5 -48.5 15
      vertex 52.5 -48.5 -12
      vertex -52.5 -48.5 -12
    endloop
  endfacet
  facet normal 1 -0 0
    outer loop
      vertex -42.5 -40 -12
      vertex -42.5 40 -15
      vertex -42.5 40 -12
    endloop
  endfacet
  facet normal 1 0 0
    outer loop
      vertex -42.5 40 -15
      vertex -42.5 -40 -12
      vertex -42.5 -40 -15
    endloop
  endfacet
  facet normal -1 0 0
    outer loop
      vertex 42.5 -40 -15
      vertex 42.5 40 -12
      vertex 42.5 40 -15
    endloop
  endfacet
  facet normal -1 -0 0
    outer loop
      vertex 42.5 40 -12
      vertex 42.5 -40 -15
      vertex 42.5 -40 -12
    endloop
  endfacet
  facet normal 0 1 -0
    outer loop
      vertex 42.5 -40 -15
      vertex -42.5 -40 -12
      vertex 42.5 -40 -12
    endloop
  endfacet
  facet normal 0 1 0
    outer loop
      vertex -42.5 -40 -12
      vertex 42.5 -40 -15
      vertex -42.5 -40 -15
    endloop
  endfacet
  facet normal 0 -1 0
    outer loop
      vertex -42.5 40 -15
      vertex 42.5 40 -12
      vertex -42.5 40 -12
    endloop
  endfacet
  facet normal 0 -1 -0
    outer loop
      vertex 42.5 40 -12
      vertex -42.5 40 -15
      vertex 42.5 40 -15
    endloop
  endfacet
  facet normal -0 0 1
    outer loop
      vertex -52.5 48.5 -7.5
      vertex 52.5 45.5 -7.5
      vertex 52.5 48.5 -7.5
    endloop
  endfacet
  facet normal 0 0 1
    outer loop
      vertex 52.5 45.5 -7.5
      vertex -52.5 48.5 -7.5
      vertex -52.5 45.5 -7.5
    endloop
  endfacet
  facet normal 0 1 -0
    outer loop
      vertex 52.5 48.5 -12
      vertex -52.5 48.5 -7.5
      vertex 52.5 48.5 -7.5
    endloop
  endfacet
  facet normal 0 1 0
    outer loop
      vertex -52.5 48.5 -7.5
      vertex 52.5 48.5 -12
      vertex -52.5 48.5 -12
    endloop
  endfacet
  facet normal 0 -1 0
    outer loop
      vertex -52.5 45.5 -12
      vertex 52.5 45.5 -7.5
      vertex -52.5 45.5 -7.5
    endloop
  endfacet
  facet normal 0 -1 -0
    outer loop
      vertex 52.5 45.5 -7.5
      vertex -52.5 45.5 -12
      vertex 52.5 45.5 -12
    endloop
  endfacet
endsolid OpenSCAD_Model
